<?xml version="1.0" standalone="no"?>
<!DOCTYPE svg PUBLIC "-//W3C//DTD SVG 20010904//EN"
 "http://www.w3.org/TR/2001/REC-SVG-20010904/DTD/svg10.dtd">
<svg version="1.0" xmlns="http://www.w3.org/2000/svg"
 width="750.000000pt" height="750.000000pt" viewBox="0 0 750.000000 750.000000"
 preserveAspectRatio="xMidYMid meet">

<g transform="translate(0.000000,750.000000) scale(0.100000,-0.100000)"
fill="#000000" stroke="none">
<path d="M5745 3927 c-29 -34 -47 -101 -55 -202 -9 -120 -20 -176 -41 -215
-12 -23 -74 -106 -89 -120 -9 -9 -29 -44 -45 -79 -15 -33 -16 -33 -35 -16 -17
15 -20 31 -20 97 0 71 -2 78 -15 64 -8 -8 -15 -18 -15 -23 0 -5 -5 -14 -12
-21 -16 -16 -48 -120 -48 -157 0 -16 7 -52 15 -79 21 -68 20 -192 -1 -200 -23
-9 -21 -9 -59 30 -21 22 -35 46 -36 62 0 22 -4 17 -19 -23 -24 -64 -26 -193
-4 -255 24 -71 47 -120 56 -120 4 0 8 -6 9 -12 0 -7 14 -24 32 -38 17 -14 28
-20 25 -14 -4 6 5 11 25 12 85 5 105 8 100 14 -2 5 6 7 19 7 13 -1 37 6 53 15
17 9 25 16 20 16 -31 0 -64 211 -46 290 5 25 15 66 20 92 6 26 15 55 20 65 5
10 20 41 33 68 13 28 25 52 28 55 21 21 93 136 102 162 6 18 16 39 22 47 18
23 20 191 3 234 -21 48 -40 190 -32 228 7 32 5 35 -10 16z"/>
<path d="M5867 3488 c-9 -56 -28 -123 -38 -132 -5 -6 -9 -20 -9 -32 0 -12 -7
-27 -15 -34 -8 -7 -15 -20 -15 -30 0 -10 -6 -23 -14 -29 -8 -7 -17 -23 -20
-37 -4 -14 -17 -42 -30 -63 -13 -20 -27 -51 -30 -69 -4 -17 -12 -34 -17 -37
-12 -8 -12 -192 0 -199 5 -3 12 -18 15 -32 8 -31 67 -124 79 -124 4 0 17 -9
29 -20 41 -38 87 -52 155 -48 35 2 67 9 71 14 4 6 14 13 23 17 9 3 29 22 44
42 27 34 28 43 32 163 3 70 9 141 15 157 26 72 52 120 79 149 33 35 38 51 12
37 -27 -14 -113 -99 -113 -111 0 -5 -3 -10 -8 -10 -4 0 -18 -21 -31 -46 -29
-54 -47 -41 -30 22 17 59 -2 206 -34 267 l-14 27 -6 -43 c-3 -24 -16 -65 -29
-93 l-23 -49 -6 110 c-7 117 -22 192 -50 238 l-17 28 -5 -33z"/>
</g>
</svg>
