<?xml version="1.0" standalone="no"?>
<!DOCTYPE svg PUBLIC "-//W3C//DTD SVG 20010904//EN"
 "http://www.w3.org/TR/2001/REC-SVG-20010904/DTD/svg10.dtd">
<svg version="1.0" xmlns="http://www.w3.org/2000/svg"
 width="4000.000000pt" height="2250.000000pt" viewBox="0 0 4000.000000 2250.000000"
 preserveAspectRatio="xMidYMid meet">

<g transform="translate(0.000000,2250.000000) scale(0.100000,-0.100000)"
fill="#000000" stroke="none">
<path d="M0 11250 l0 -11250 20000 0 20000 0 0 11250 0 11250 -20000 0 -20000
0 0 -11250z m8477 10798 c17 -14 16 -28 -2 -28 -9 0 -12 6 -9 15 4 10 0 15
-12 15 -11 0 -26 5 -34 11 -11 8 -8 9 15 4 16 -4 36 -11 42 -17z m10353 -268
c0 -5 -2 -10 -4 -10 -3 0 -8 5 -11 10 -3 6 -1 10 4 10 6 0 11 -4 11 -10z
m-777 -198 c-6 -24 -23 -30 -23 -9 0 13 21 39 26 34 2 -2 1 -13 -3 -25z m4951
-1947 c3 -10 -1 -15 -12 -15 -10 0 -23 -5 -30 -12 -6 -6 -15 -9 -18 -5 -9 9
16 38 27 31 5 -3 9 0 9 5 0 16 17 13 24 -4z m36 -19 c0 -14 -4 -27 -10 -31 -5
-3 -8 7 -7 25 2 36 17 41 17 6z m-51 -48 c-23 -9 -39 -3 -39 14 0 5 7 8 15 5
8 -4 17 -1 21 5 4 7 9 6 15 -3 6 -10 2 -16 -12 -21z m-64 2 l30 -21 -35 4
c-23 2 -36 9 -38 20 -4 22 6 21 43 -3z m99 -26 c9 -8 16 -11 16 -5 0 6 5 11
10 11 16 0 11 -27 -6 -34 -17 -6 -54 19 -54 36 0 13 17 9 34 -8z m-111 -21
c-18 -12 -20 -19 -12 -34 14 -28 27 -23 43 16 19 44 26 44 26 0 0 -26 -3 -33
-15 -29 -9 4 -19 -4 -27 -20 l-12 -27 -22 24 c-33 36 -17 87 26 86 10 0 8 -5
-7 -16z m-29 -89 c3 -8 2 -12 -4 -9 -6 3 -10 10 -10 16 0 14 7 11 14 -7z m97
-11 c-12 -20 -14 -14 -5 12 4 9 9 14 11 11 3 -2 0 -13 -6 -23z m-67 -35 c-7
-10 -34 -10 -34 0 0 4 5 13 12 20 9 9 14 9 19 0 4 -7 5 -16 3 -20z m-8 -87
c-4 -5 -1 -11 4 -13 6 -2 -3 -9 -20 -15 -29 -11 -30 -10 -18 5 20 25 46 43 34
23z m-13 -66 c-7 -21 -13 -19 -13 6 0 11 4 18 10 14 5 -3 7 -12 3 -20z
m-11969 -81 c8 -22 8 -24 -8 -24 -18 0 -29 16 -21 30 9 15 22 12 29 -6z
m11949 -28 c-6 -11 -13 -12 -23 -6 -13 8 -12 10 3 10 9 0 17 8 18 18 0 9 3 12
5 5 3 -7 2 -19 -3 -27z m47 9 c-7 -8 -18 -15 -24 -15 -6 0 -2 7 8 15 25 19 32
19 16 0z m205 4 c11 -17 -1 -21 -15 -4 -8 9 -8 15 -2 15 6 0 14 -5 17 -11z
m-71 -44 c3 -8 1 -15 -4 -15 -5 0 -8 -9 -7 -20 1 -11 8 -20 17 -20 12 0 12 -2
1 -9 -7 -5 -23 -7 -35 -4 -13 2 -10 -1 9 -10 l30 -15 -34 2 c-39 1 -54 24 -22
33 11 3 18 9 15 14 -3 5 -10 7 -15 4 -16 -11 -9 7 9 21 16 13 16 13 -3 14
l-20 1 20 9 c29 12 32 12 39 -5z m71 -4 c-8 -14 -44 -20 -39 -7 2 6 14 12 24
13 11 1 18 -2 15 -6z m-135 -21 c0 -5 -7 -10 -15 -10 -8 0 -15 5 -15 10 0 6 7
10 15 10 8 0 15 -4 15 -10z m130 -24 c0 -15 -24 -16 -37 -1 -4 4 -2 5 5 1 6
-4 12 -2 12 3 0 6 5 11 10 11 6 0 10 -6 10 -14z m-239 -9 c-7 -7 -14 -8 -21
-1 -6 6 -2 10 12 11 16 2 18 -1 9 -10z m223 -30 c11 -10 10 -15 -2 -26 -13
-12 -14 -12 -10 0 3 8 -2 19 -11 26 -12 9 -12 12 -3 13 7 0 19 -6 26 -13z
m-224 -17 c0 -5 -2 -10 -4 -10 -3 0 -8 5 -11 10 -3 6 -1 10 4 10 6 0 11 -4 11
-10z m174 -20 c-10 -4 -21 -6 -24 -3 -8 7 24 22 34 16 5 -4 1 -10 -10 -13z
m-19 -29 c3 -5 1 -12 -5 -16 -5 -3 -10 1 -10 9 0 18 6 21 15 7z m72 -13 c-3
-8 -6 -5 -6 6 -1 11 2 17 5 13 3 -3 4 -12 1 -19z m-147 -228 c0 -5 -2 -10 -4
-10 -3 0 -8 5 -11 10 -3 6 -1 10 4 10 6 0 11 -4 11 -10z m-60 -20 c0 -5 -5
-10 -11 -10 -5 0 -7 5 -4 10 3 6 8 10 11 10 2 0 4 -4 4 -10z m18 -147 c-6 -7
-19 -11 -29 -8 -11 4 -20 2 -20 -4 -1 -6 -3 -15 -4 -21 -1 -5 -3 -14 -4 -20 0
-5 -8 -10 -16 -10 -9 0 -12 6 -8 18 15 41 34 59 63 59 24 0 27 -3 18 -14z m38
-40 c-6 -15 -9 -15 -16 -3 -6 9 -5 17 3 22 16 10 21 2 13 -19z m-36 -11 c0 -5
-15 -14 -34 -21 -25 -10 -32 -18 -29 -32 7 -25 -4 -24 -17 1 -10 18 -6 23 32
40 50 23 48 22 48 12z m-107 -87 c4 -8 3 -16 -1 -19 -13 -8 -35 11 -28 23 10
15 23 14 29 -4z m106 -18 c-2 -1 -13 -9 -24 -17 -19 -14 -19 -14 -6 3 7 9 18
17 24 17 6 0 8 -1 6 -3z m-64 -127 c-3 -5 -11 -10 -16 -10 -6 0 -7 5 -4 10 3
6 11 10 16 10 6 0 7 -4 4 -10z m45 -24 c0 -2 -7 -7 -16 -10 -8 -3 -12 -2 -9 4
6 10 25 14 25 6z m2306 -129 c4 -4 -2 -7 -14 -7 -11 0 -23 4 -26 8 -6 10 30 9
40 -1z m231 -59 c-3 -8 -6 -5 -6 6 -1 11 2 17 5 13 3 -3 4 -12 1 -19z m-983
-1468 c14 0 17 -3 9 -11 -12 -12 -53 8 -53 25 0 6 5 5 12 -2 7 -7 21 -12 32
-12z m7468 -2372 c-7 -7 -12 -8 -12 -2 0 14 12 26 19 19 2 -3 -1 -11 -7 -17z
m-72 -18 c0 -5 -5 -10 -11 -10 -5 0 -7 5 -4 10 3 6 8 10 11 10 2 0 4 -4 4 -10z
m20 -60 c-8 -5 -19 -10 -25 -10 -5 0 -3 5 5 10 8 5 20 10 25 10 6 0 3 -5 -5
-10z m-20680 -1454 c0 -3 -4 -8 -10 -11 -5 -3 -10 -1 -10 4 0 6 5 11 10 11 6
0 10 -2 10 -4z m21200 -146 c0 -5 -7 -10 -15 -10 -8 0 -15 5 -15 10 0 6 7 10
15 10 8 0 15 -4 15 -10z m-100 -330 c0 -5 -4 -10 -10 -10 -5 0 -10 5 -10 10 0
6 5 10 10 10 6 0 10 -4 10 -10z m-682 -144 c-7 -8 -15 -12 -17 -11 -5 6 10 25
20 25 5 0 4 -6 -3 -14z m-38 -266 c0 -5 -5 -10 -11 -10 -5 0 -7 5 -4 10 3 6 8
10 11 10 2 0 4 -4 4 -10z m961 -93 c-10 -9 -11 -8 -5 6 3 10 9 15 12 12 3 -3
0 -11 -7 -18z m109 -211 c0 -3 -4 -8 -10 -11 -5 -3 -10 -1 -10 4 0 6 5 11 10
11 6 0 10 -2 10 -4z m-940 -30 c0 -3 -4 -8 -10 -11 -5 -3 -10 -1 -10 4 0 6 5
11 10 11 6 0 10 -2 10 -4z m714 -28 c7 -5 5 -8 -6 -8 -21 0 -32 16 -22 32 6 9
9 8 12 -2 3 -8 10 -18 16 -22z m60 7 c-4 -8 -11 -15 -16 -15 -6 0 -5 6 2 15 7
8 14 15 16 15 2 0 1 -7 -2 -15z m26 -49 c0 -3 -4 -8 -10 -11 -5 -3 -10 -1 -10
4 0 6 5 11 10 11 6 0 10 -2 10 -4z m60 -16 c0 -5 -4 -10 -10 -10 -5 0 -10 5
-10 10 0 6 5 10 10 10 6 0 10 -4 10 -10z m-160 -24 c0 -2 -7 -9 -15 -16 -13
-11 -14 -10 -9 4 5 14 24 23 24 12z m94 -21 c-4 -8 -10 -15 -15 -15 -4 0 -6 7
-3 15 4 8 10 15 15 15 4 0 6 -7 3 -15z m-81 -45 c-3 -11 -7 -20 -9 -20 -2 0
-4 9 -4 20 0 11 4 20 9 20 5 0 7 -9 4 -20z m327 -4 c0 -2 -8 -10 -17 -17 -16
-13 -17 -12 -4 4 13 16 21 21 21 13z m-260 -26 c0 -5 -5 -10 -11 -10 -5 0 -7
5 -4 10 3 6 8 10 11 10 2 0 4 -4 4 -10z m-860 -12 c-15 -6 -20 -12 -12 -15 6
-3 12 -9 12 -15 0 -6 -6 -5 -15 2 -18 15 -3 40 24 39 10 0 7 -4 -9 -11z m-46
-83 c-4 -8 -8 -15 -10 -15 -2 0 -4 7 -4 15 0 8 4 15 10 15 5 0 7 -7 4 -15z
m61 -15 c-3 -5 -11 -10 -16 -10 -6 0 -7 5 -4 10 3 6 11 10 16 10 6 0 7 -4 4
-10z m932 -62 c-3 -8 -6 -5 -6 6 -1 11 2 17 5 13 3 -3 4 -12 1 -19z m83 -8 c0
-5 -5 -10 -11 -10 -5 0 -7 5 -4 10 3 6 8 10 11 10 2 0 4 -4 4 -10z m-1235
-130 c-3 -5 -12 -10 -18 -10 -7 0 -6 4 3 10 19 12 23 12 15 0z m765 -20 c-19
-13 -30 -13 -30 0 0 6 10 10 23 10 18 0 19 -2 7 -10z m380 -80 c0 -5 -5 -10
-11 -10 -5 0 -7 5 -4 10 3 6 8 10 11 10 2 0 4 -4 4 -10z m-74 -37 c-10 -10
-19 5 -10 18 6 11 8 11 12 0 2 -7 1 -15 -2 -18z m-11 -33 c3 -5 2 -10 -4 -10
-5 0 -13 5 -16 10 -3 6 -2 10 4 10 5 0 13 -4 16 -10z m-805 -36 c0 -8 -19 -13
-24 -6 -3 5 1 9 9 9 8 0 15 -2 15 -3z m865 -34 c3 -5 1 -10 -4 -10 -6 0 -11 5
-11 10 0 6 2 10 4 10 3 0 8 -4 11 -10z m-218 -32 c-3 -8 -6 -5 -6 6 -1 11 2
17 5 13 3 -3 4 -12 1 -19z m-528 -20 c0 -31 -1 -31 -10 -10 -5 13 -7 28 -3 33
10 16 14 9 13 -23z m-52 -30 c-3 -8 -6 -5 -6 6 -1 11 2 17 5 13 3 -3 4 -12 1
-19z m673 18 c0 -3 -4 -8 -10 -11 -5 -3 -10 -1 -10 4 0 6 5 11 10 11 6 0 10
-2 10 -4z m-567 -55 c-3 -12 -11 -17 -19 -14 -19 7 -18 21 4 26 9 3 18 5 19 6
0 0 -1 -8 -4 -18z m-32 -48 c13 -16 12 -17 -3 -4 -17 13 -22 21 -14 21 2 0 10
-8 17 -17z m9 -43 c0 -5 -2 -10 -4 -10 -3 0 -8 5 -11 10 -3 6 -1 10 4 10 6 0
11 -4 11 -10z m-50 -24 c0 -3 -4 -8 -10 -11 -5 -3 -10 -1 -10 4 0 6 5 11 10
11 6 0 10 -2 10 -4z m20 -20 c0 -3 -4 -8 -10 -11 -5 -3 -10 -1 -10 4 0 6 5 11
10 11 6 0 10 -2 10 -4z m360 -6 c-8 -5 -19 -10 -25 -10 -5 0 -3 5 5 10 8 5 20
10 25 10 6 0 3 -5 -5 -10z m-4063 -772 c-3 -8 -6 -5 -6 6 -1 11 2 17 5 13 3
-3 4 -12 1 -19z m-9680 -408 c3 -10 2 -11 -4 -4 -4 6 -15 14 -23 17 -11 5 -9
6 4 4 11 -1 21 -9 23 -17z m1140 -392 c-3 -8 -6 -5 -6 6 -1 11 2 17 5 13 3 -3
4 -12 1 -19z m-8269 -474 l3 -29 -16 29 c-18 34 -19 39 -2 34 6 -3 13 -18 15
-34z m-74 1 c-4 -8 -8 -15 -10 -15 -2 0 -4 7 -4 15 0 8 4 15 10 15 5 0 7 -7 4
-15z m22081 -1415 c3 -5 -1 -10 -10 -10 -9 0 -13 5 -10 10 3 6 8 10 10 10 2 0
7 -4 10 -10z m3 -71 c-2 -6 -25 -19 -50 -29 -40 -15 -48 -15 -52 -3 -3 8 -2
12 2 9 4 -2 25 4 47 14 47 22 58 24 53 9z m-140 -64 c-3 -3 -9 2 -12 12 -6 14
-5 15 5 6 7 -7 10 -15 7 -18z m78 3 c5 -7 2 -9 -8 -5 -9 3 -21 0 -27 -6 -8 -8
-11 -8 -11 0 0 10 14 20 32 22 4 1 10 -4 14 -11z m-11563 -27 c3 -14 1 -18 -9
-14 -8 3 -14 11 -14 19 0 21 17 17 23 -5z m11604 -55 c-27 -28 -43 -33 -50
-13 -3 9 -9 9 -26 -1 -17 -10 -21 -10 -21 2 0 8 -6 16 -12 19 -7 2 -3 2 10 0
15 -2 22 2 22 12 0 8 3 14 8 14 20 -3 32 2 32 16 0 8 5 15 11 15 6 0 9 -9 6
-20 -3 -13 0 -20 10 -20 8 0 11 5 8 10 -3 6 -1 10 4 10 6 0 12 8 12 18 1 9 4
5 6 -9 3 -18 -4 -35 -20 -53z m53 -11 c0 -8 7 -15 15 -15 8 0 15 -4 15 -10 0
-5 6 -9 13 -7 8 1 13 -13 15 -43 2 -37 0 -42 -9 -27 -6 10 -9 26 -6 36 3 11
-2 17 -14 17 -10 0 -15 -4 -13 -8 3 -4 -4 -8 -15 -8 -11 0 -23 5 -26 10 -12
19 -27 -2 -21 -30 5 -30 -15 -57 -34 -45 -15 9 -12 26 7 48 17 18 17 19 -2 16
-12 -3 -21 2 -23 12 -2 13 3 15 23 12 15 -3 25 -1 25 6 0 7 5 9 12 5 7 -4 8
-3 4 5 -8 12 10 41 25 41 5 0 9 -7 9 -15z m-143 -61 c-3 -3 -12 -4 -19 -1 -8
3 -5 6 6 6 11 1 17 -2 13 -5z m43 -18 c0 -3 -4 -8 -10 -11 -5 -3 -10 -1 -10 4
0 6 5 11 10 11 6 0 10 -2 10 -4z m-43 -52 c-3 -3 -12 -4 -19 -1 -8 3 -5 6 6 6
11 1 17 -2 13 -5z m178 -5 c-4 -6 -13 -8 -21 -5 -7 3 -20 -4 -28 -16 -8 -11
-19 -17 -25 -14 -11 7 -26 -12 -17 -21 5 -6 20 -8 84 -12 6 -1 11 -7 10 -13
-2 -7 8 -14 22 -16 37 -5 42 -15 35 -67 -6 -39 -11 -46 -26 -42 -11 3 -17 1
-13 -4 3 -5 1 -16 -4 -25 -8 -14 -10 -14 -25 1 -16 15 -17 15 -17 -4 0 -13 8
-21 23 -23 23 -3 27 -22 4 -24 -6 0 -18 -2 -24 -2 -7 -1 -13 -11 -13 -22 0
-22 15 -27 23 -7 4 8 6 6 6 -4 1 -9 -10 -21 -24 -27 -35 -16 -45 -15 -45 4 0
14 3 14 15 4 13 -10 15 -9 15 9 0 11 -6 20 -12 19 -8 -2 -12 6 -10 21 2 19 0
21 -12 12 -11 -9 -15 -5 -21 21 -4 18 -7 38 -6 45 1 7 -8 22 -21 35 -14 14
-18 23 -10 26 7 2 10 8 6 13 -3 5 -1 9 4 9 6 0 8 9 5 20 -6 22 -23 27 -23 7 0
-8 -7 -14 -15 -14 -9 0 -14 6 -11 13 3 8 1 16 -4 19 -11 7 -2 35 11 35 5 0 18
9 29 20 11 11 27 20 35 20 8 0 15 5 15 10 0 6 21 10 46 10 29 0 43 -4 39 -11z
m35 -73 c0 -3 -4 -8 -10 -11 -5 -3 -10 -1 -10 4 0 6 5 11 10 11 6 0 10 -2 10
-4z m-221 -92 c-5 -6 -7 -19 -3 -28 4 -11 1 -16 -10 -16 -19 0 -19 1 -6 34 6
18 6 26 -1 26 -6 0 -7 4 -4 10 4 6 11 5 20 -3 8 -7 10 -16 4 -23z m-11718 -2
c-7 -2 -18 1 -23 6 -8 8 -4 9 13 5 13 -4 18 -8 10 -11z m11762 -75 c-7 -11
-23 2 -23 19 0 12 2 12 14 2 8 -7 12 -16 9 -21z m-37 -10 c-4 -30 -14 -47 -28
-47 -6 0 -4 8 5 18 22 24 21 33 0 25 -16 -6 -16 -5 -4 10 19 24 30 21 27 -6z
m67 -16 c5 -22 -13 -33 -33 -21 -10 6 -10 11 1 24 19 20 26 20 32 -3z m157 9
c8 -5 11 -12 7 -16 -4 -4 -15 0 -24 9 -18 18 -8 23 17 7z m-193 -67 c-4 -3 -2
-12 5 -20 8 -11 7 -12 -6 -7 -18 7 -22 34 -4 34 6 0 8 -3 5 -7z m-11807 -1963
c0 -5 -4 -10 -10 -10 -5 0 -10 5 -10 10 0 6 5 10 10 10 6 0 10 -4 10 -10z
m610 -865 c-1 -19 -1 -19 -19 3 -11 12 -25 22 -31 22 -10 0 -10 3 -1 14 11 13
15 12 32 -2 10 -9 19 -26 19 -37z m7905 -135 c3 -6 -1 -7 -9 -4 -18 7 -21 14
-7 14 6 0 13 -4 16 -10z m-8782 -1311 c-6 -6 -18 -6 -28 -3 -18 7 -18 8 1 14
23 9 39 1 27 -11z m-2303 -1139 c0 -5 -4 -10 -10 -10 -5 0 -10 5 -10 10 0 6 5
10 10 10 6 0 10 -4 10 -10z"/>
<path d="M33225 6760 c3 -5 8 -10 11 -10 2 0 4 5 4 10 0 6 -5 10 -11 10 -5 0
-7 -4 -4 -10z"/>
<path d="M33214 6554 c-16 -13 -16 -15 -1 -10 9 3 17 1 17 -5 0 -6 5 -7 10 -4
12 7 13 35 2 35 -5 0 -17 -7 -28 -16z"/>
<path d="M33268 6473 c-10 -2 -18 -14 -18 -25 0 -18 2 -19 17 -7 14 12 16 12
12 0 -3 -8 3 -23 14 -34 11 -11 16 -25 12 -35 -5 -13 -3 -14 5 -6 9 9 9 17 1
33 -7 12 -10 33 -9 47 3 28 -5 35 -34 27z"/>
<path d="M33346 6471 c-4 -7 -5 -15 -2 -18 9 -9 19 4 14 18 -4 11 -6 11 -12 0z"/>
<path d="M33353 6433 c-13 -2 -23 -10 -23 -18 0 -11 5 -11 30 1 28 15 39 26
23 23 -5 -1 -18 -4 -30 -6z"/>
</g>
</svg>
